{"title":"Vikings.S03E08.720p.WEB-DL.DD5.1.H.264-BS[rarbg]","uid":11811692,"size":1416014119,"categoryP":"video","categoryS":"hd___tv_shows","magnet":"?xt=urn:btih:824db77b3269b8ac6123f2cbc6112423824c5d55&amp;dn=Vikings.S03E08.720p.WEB-DL.DD5.1.H.264-BS%5Brarbg%5D&amp;tr=udp%3A%2F%2Ftracker.openbittorrent.com%3A80&amp;tr=udp%3A%2F%2Fopen.demonii.com%3A1337&amp;tr=udp%3A%2F%2Ftracker.coppersurfer.tk%3A6969&amp;tr=udp%3A%2F%2Fexodus.desync.com%3A6969","seeders":8,"leechers":0,"uploader":"kanaille","files":3,"time":1428798869,"description":"Screenshots: &lt;a href=&quot;\nhttps://lut.im/FFaCWlPv/hx2pQNmx&quot; rel=&quot;nofollow&quot; target=&quot;_NEW&quot;&gt;\nhttps://lut.im/FFaCWlPv/hx2pQNmx&lt;/a&gt; &lt;a href=&quot;\nhttps://lut.im/q7LORzdj/mrCvbF9G&quot; rel=&quot;nofollow&quot; target=&quot;_NEW&quot;&gt;\nhttps://lut.im/q7LORzdj/mrCvbF9G&lt;/a&gt; &lt;a href=&quot;\nhttps://lut.im/zSbSttQF/g1wHirDP&quot; rel=&quot;nofollow&quot; target=&quot;_NEW&quot;&gt;\nhttps://lut.im/zSbSttQF/g1wHirDP&lt;/a&gt;\n\n\nGeneral\nUnique ID                                : 176256765727806867450067200672191993962 (0x8499D17C36BEC78486F026B5F653D86A)\nComplete name                            : Vikings.S03E08.To.the.Gates.720p.WEB-DL.DD5.1.H.264-BS.mkv\nFormat                                   : Matroska\nFormat version                           : Version 4 / Version 2\nFile size                                : 1.32 GiB\nDuration                                 : 44mn 11s\nOverall bit rate                         : 4 272 Kbps\nEncoded date                             : UTC 2015-04-10 08:11:39\nWriting application                      : mkvmerge v7.6.0 ('Garden of Dreams') 64bit built on Feb  8 2015 13:04:34\nWriting library                          : libebml v1.3.1 + libmatroska v1.4.2\nDURATION                                 : 00:44:11.712000000\nNUMBER_OF_FRAMES                         : 82866\nNUMBER_OF_BYTES                          : 127282176\n_STATISTICS_WRITING_APP                  : mkvmerge v7.6.0 ('Garden of Dreams') 64bit built on Feb  8 2015 13:04:34\n_STATISTICS_WRITING_DATE_UTC             : 2015-04-10 08:11:39\n_STATISTICS_TAGS                         : BPS DURATION NUMBER_OF_FRAMES NUMBER_OF_BYTES\nAttachements                             : small_cover.jpg / cover.jpg / cover_land.jpg / small_cover_land.jpg\n\nVideo\nID                                       : 2\nFormat                                   : AVC\nFormat/Info                              : Advanced Video Codec\nFormat profile                           : &lt;a class=&quot;__cf_email__&quot; href=&quot;/cdn-cgi/l/email-protection&quot; data-cfemail=&quot;763e1f111e363a455847&quot;&gt;[email&amp;#160;protected]&lt;/a&gt;&lt;script cf-hash='f9e31' type=&quot;text/javascript&quot;&gt;\n/* &lt;![CDATA[ */!function(){try{var t=&quot;currentScript&quot;in document?document.currentScript:function(){for(var t=document.getElementsByTagName(&quot;script&quot;),e=t.length;e--;)if(t[e].getAttribute(&quot;cf-hash&quot;))return t[e]}();if(t&amp;&amp;t.previousSibling){var e,r,n,i,c=t.previousSibling,a=c.getAttribute(&quot;data-cfemail&quot;);if(a){for(e=&quot;&quot;,r=parseInt(a.substr(0,2),16),n=2;a.length-n;n+=2)i=parseInt(a.substr(n,2),16)^r,e+=String.fromCharCode(i);e=document.createTextNode(e),c.parentNode.replaceChild(e,c)}}}catch(u){}}();/* ]]&gt; */&lt;/script&gt;\nFormat settings, CABAC                   : No\nFormat settings, ReFrames                : 2 frames\nCodec ID                                 : V_MPEG4/ISO/AVC\nDuration                                 : 44mn 11s\nBit rate                                 : 3 803 Kbps\nWidth                                    : 1 280 pixels\nHeight                                   : 718 pixels\nDisplay aspect ratio                     : 16:9\nFrame rate mode                          : Constant\nFrame rate                               : 23.976 fps\nColor space                              : YUV\nChroma subsampling                       : 4:2:0\nBit depth                                : 8 bits\nScan type                                : Progressive\nBits/(Pixel*Frame)                       : 0.173\nStream size                              : 1.17 GiB (89%)\nLanguage                                 : English\nDefault                                  : Yes\nForced                                   : No\nColor primaries                          : BT.709\nTransfer characteristics                 : BT.709\nMatrix coefficients                      : BT.709\n\nAudio\nID                                       : 3\nFormat                                   : AC-3\nFormat/Info                              : Audio Coding 3\nMode extension                           : CM (complete main)\nFormat settings, Endianness              : Big\nCodec ID                                 : A_AC3\nDuration                                 : 44mn 11s\nBit rate mode                            : Constant\nBit rate                                 : 384 Kbps\nChannel(s)                               : 6 channels\nChannel positions                        : Front: L C R, Side: L R, LFE\nSampling rate                            : 48.0 KHz\nBit depth                                : 16 bits\nCompression mode                         : Lossy\nStream size                              : 121 MiB (9%)\nLanguage                                 : English\nDefault                                  : Yes\nForced                                   : No\n\nText\nID                                       : 1\nFormat                                   : UTF-8\nCodec ID                                 : S_TEXT/UTF8\nCodec ID/Info                            : UTF-8 Plain Text\nTitle                                    : CC\nLanguage                                 : English\nDefault                                  : No\nForced                                   : No","torrent":{"xt":"urn:btih:824db77b3269b8ac6123f2cbc6112423824c5d55","amp;dn":"Vikings.S03E08.720p.WEB-DL.DD5.1.H.264-BS%5Brarbg%5D","amp;tr":["udp%3A%2F%2Ftracker.openbittorrent.com%3A80","udp%3A%2F%2Fopen.demonii.com%3A1337","udp%3A%2F%2Ftracker.coppersurfer.tk%3A6969","udp%3A%2F%2Fexodus.desync.com%3A6969"],"infoHash":"824db77b3269b8ac6123f2cbc6112423824c5d55","infoHashBuffer":{"type":"Buffer","data":[130,77,183,123,50,105,184,172,97,35,242,203,198,17,36,35,130,76,93,85]},"announce":[],"urlList":[]}}